<?xml version="1.0" encoding="UTF-8"?>
<svg xmlns="http://www.w3.org/2000/svg" xmlns:xlink="http://www.w3.org/1999/xlink" width="375pt" height="374.999991pt" viewBox="0 0 375 374.999991" version="1.2">
<g id="surface1">
<path style=" stroke:none;fill-rule:nonzero;fill:rgb(84.709167%,43.528748%,43.528748%);fill-opacity:1;" d="M 81.898438 315 C 64.5 315 56.699219 302.398438 56.699219 289.800781 C 56.699219 277.199219 69.300781 264.601562 81.898438 264.601562 C 94.5 264.601562 107.101562 277.199219 107.101562 289.800781 C 107.101562 245.699219 88.199219 239.398438 56.699219 239.398438 C 25.199219 239.398438 6.300781 261.964844 6.300781 289.800781 C 6.300781 299.003906 6.300781 315 6.300781 315 L 6.300781 371.699219 L 371.699219 371.699219 L 371.699219 315 L 81.898438 315 "/>
<path style=" stroke:none;fill-rule:nonzero;fill:rgb(86.669922%,10.198975%,9.408569%);fill-opacity:1;" d="M 352.800781 315 C 352.800781 332.398438 299.199219 346.5 233.101562 346.5 C 167 346.5 113.398438 332.398438 113.398438 315 C 113.398438 297.601562 167 283.5 233.101562 283.5 C 299.199219 283.5 352.800781 297.601562 352.800781 315 "/>
<path style=" stroke:none;fill-rule:nonzero;fill:rgb(38.819885%,5.099487%,4.708862%);fill-opacity:1;" d="M 79.390625 321.300781 C 67.796875 321.300781 48.257812 319.503906 36.078125 308.601562 C 28.867188 302.128906 25.199219 293.566406 25.199219 283.105469 L 37.800781 283.105469 C 37.800781 289.921875 39.988281 295.164062 44.46875 299.199219 C 58.078125 311.40625 87.214844 308.378906 87.511719 308.355469 L 88.890625 320.855469 C 88.445312 320.929688 84.777344 321.300781 79.390625 321.300781 "/>
<path style=" stroke:none;fill-rule:nonzero;fill:rgb(84.709167%,43.528748%,43.528748%);fill-opacity:1;" d="M 270.898438 119.699219 L 195.300781 119.699219 L 195.300781 56.699219 L 270.898438 56.699219 L 270.898438 119.699219 "/>
<path style=" stroke:none;fill-rule:nonzero;fill:rgb(86.669922%,10.198975%,9.408569%);fill-opacity:1;" d="M 195.300781 56.699219 L 195.300781 50.398438 C 195.300781 39.964844 203.765625 31.5 214.199219 31.5 L 233.101562 31.5 C 240.0625 31.5 245.699219 25.863281 245.699219 18.898438 C 245.699219 11.933594 251.335938 6.300781 258.300781 6.300781 L 270.898438 6.300781 L 270.898438 56.699219 L 195.300781 56.699219 "/>
<path style=" stroke:none;fill-rule:nonzero;fill:rgb(38.819885%,5.099487%,4.708862%);fill-opacity:1;" d="M 226.800781 88.199219 L 214.199219 88.199219 L 214.199219 75.601562 L 226.800781 75.601562 L 226.800781 88.199219 "/>
<path style=" stroke:none;fill-rule:nonzero;fill:rgb(38.819885%,5.099487%,4.708862%);fill-opacity:1;" d="M 252 88.199219 L 239.398438 88.199219 L 239.398438 75.601562 L 252 75.601562 L 252 88.199219 "/>
<path style=" stroke:none;fill-rule:nonzero;fill:rgb(84.709167%,43.528748%,43.528748%);fill-opacity:1;" d="M 321.300781 94.5 C 314.335938 94.5 308.699219 100.136719 308.699219 107.101562 L 308.699219 144.898438 L 119.699219 144.898438 C 112.734375 144.898438 107.101562 150.535156 107.101562 157.5 C 107.101562 164.464844 112.734375 170.101562 119.699219 170.101562 L 201.601562 170.101562 L 201.601562 214.199219 L 264.601562 214.199219 L 264.601562 170.101562 L 333.898438 170.101562 L 333.898438 107.101562 C 333.898438 100.136719 328.265625 94.5 321.300781 94.5 "/>
<path style=" stroke:none;fill-rule:nonzero;fill:rgb(84.709167%,43.528748%,43.528748%);fill-opacity:1;" d="M 170.101562 296.101562 L 170.101562 264.601562 L 201.601562 233.101562 L 220.5 252 L 195.300781 277.199219 L 195.300781 321.300781 L 138.601562 321.300781 L 138.601562 308.699219 L 170.101562 296.101562 "/>
<path style=" stroke:none;fill-rule:nonzero;fill:rgb(84.709167%,43.528748%,43.528748%);fill-opacity:1;" d="M 296.101562 296.101562 L 296.101562 264.601562 L 264.601562 233.101562 L 245.699219 252 L 270.898438 277.199219 L 270.898438 321.300781 L 327.601562 321.300781 L 327.601562 308.699219 L 296.101562 296.101562 "/>
<path style=" stroke:none;fill-rule:nonzero;fill:rgb(86.669922%,10.198975%,9.408569%);fill-opacity:1;" d="M 201.601562 214.199219 L 201.601562 233.101562 L 220.5 252 L 245.699219 252 L 264.601562 233.101562 L 264.601562 214.199219 L 201.601562 214.199219 "/>
<path style=" stroke:none;fill-rule:nonzero;fill:rgb(38.819885%,5.099487%,4.708862%);fill-opacity:1;" d="M 163.800781 201.601562 L 75.601562 201.601562 L 75.601562 189 L 163.800781 189 L 163.800781 201.601562 "/>
<path style=" stroke:none;fill-rule:nonzero;fill:rgb(38.819885%,5.099487%,4.708862%);fill-opacity:1;" d="M 182.699219 226.800781 L 88.199219 226.800781 L 88.199219 214.199219 L 182.699219 214.199219 L 182.699219 226.800781 "/>
<path style=" stroke:none;fill-rule:nonzero;fill:rgb(38.819885%,5.099487%,4.708862%);fill-opacity:1;" d="M 176.398438 126 L 113.398438 126 L 113.398438 113.398438 L 176.398438 113.398438 L 176.398438 126 "/>
<path style=" stroke:none;fill-rule:nonzero;fill:rgb(38.819885%,5.099487%,4.708862%);fill-opacity:1;" d="M 100.800781 126 L 88.199219 126 L 88.199219 113.398438 L 100.800781 113.398438 L 100.800781 126 "/>
<path style=" stroke:none;fill-rule:nonzero;fill:rgb(38.819885%,5.099487%,4.708862%);fill-opacity:1;" d="M 365.398438 365.398438 L 12.601562 365.398438 L 12.601562 289.800781 C 12.601562 263.417969 30.320312 245.699219 56.699219 245.699219 C 77.988281 245.699219 90.785156 248.578125 96.765625 262.558594 C 92.210938 259.875 87.117188 258.300781 81.898438 258.300781 C 65.707031 258.300781 50.398438 273.605469 50.398438 289.800781 C 50.398438 294.84375 51.507812 300.011719 53.769531 304.6875 C 50.324219 303.335938 47.101562 301.5625 44.46875 299.199219 C 39.988281 295.164062 37.800781 289.921875 37.800781 283.105469 L 25.199219 283.105469 C 25.199219 293.566406 28.867188 302.128906 36.078125 308.601562 C 48.257812 319.503906 67.796875 321.300781 79.390625 321.300781 C 80.101562 321.300781 108.550781 321.300781 108.550781 321.300781 C 118.320312 341.996094 176.03125 352.800781 233.101562 352.800781 C 290.167969 352.800781 347.878906 341.996094 357.648438 321.300781 L 365.398438 321.300781 Z M 134.464844 304 C 133.136719 305.179688 132.300781 306.855469 132.300781 308.699219 L 132.300781 321.300781 C 132.300781 323.21875 133.210938 324.867188 134.539062 326.023438 C 124.820312 322.0625 119.699219 318.027344 119.699219 315 C 119.699219 312.734375 123.785156 308.453125 134.464844 304 Z M 195.300781 327.601562 C 198.769531 327.601562 201.601562 324.769531 201.601562 321.300781 L 201.601562 290.980469 C 222.320312 289.527344 243.878906 289.527344 264.601562 290.980469 L 264.601562 321.300781 C 264.601562 324.769531 267.429688 327.601562 270.898438 327.601562 L 327.5 327.601562 C 308.898438 334.21875 277.027344 340.199219 233.101562 340.199219 C 189.171875 340.199219 157.304688 334.21875 138.699219 327.601562 Z M 144.898438 312.957031 L 172.4375 301.957031 C 174.824219 300.996094 176.398438 298.683594 176.398438 296.101562 L 176.398438 267.207031 L 201.601562 242.007812 L 211.589844 252 L 190.84375 272.746094 C 189.664062 273.925781 189 275.527344 189 277.199219 L 189 315 L 144.898438 315 Z M 119.699219 163.800781 C 116.230469 163.800781 113.398438 160.96875 113.398438 157.5 C 113.398438 154.03125 116.230469 151.199219 119.699219 151.199219 L 308.699219 151.199219 C 312.167969 151.199219 315 148.371094 315 144.898438 L 315 107.101562 C 315 103.628906 317.828125 100.800781 321.300781 100.800781 C 324.769531 100.800781 327.601562 103.628906 327.601562 107.101562 L 327.601562 163.800781 L 264.601562 163.800781 C 261.128906 163.800781 258.300781 166.628906 258.300781 170.101562 L 258.300781 207.898438 L 207.898438 207.898438 L 207.898438 170.101562 C 207.898438 166.628906 205.070312 163.800781 201.601562 163.800781 Z M 207.898438 230.492188 L 207.898438 220.5 L 258.300781 220.5 L 258.300781 230.492188 L 243.089844 245.699219 L 223.109375 245.699219 Z M 243.089844 258.300781 L 263.074219 278.28125 C 243.3125 276.976562 222.886719 276.976562 203.125 278.28125 L 223.109375 258.300781 Z M 289.800781 267.207031 L 289.800781 296.101562 C 289.800781 298.683594 291.375 300.996094 293.761719 301.957031 L 321.300781 312.957031 L 321.300781 315 L 277.199219 315 L 277.199219 277.199219 C 277.199219 275.527344 276.535156 273.925781 275.355469 272.746094 L 254.609375 252 L 264.601562 242.007812 Z M 331.734375 304 C 342.414062 308.453125 346.5 312.734375 346.5 315 C 346.5 318.027344 341.382812 322.0625 331.660156 326.023438 C 332.988281 324.867188 333.898438 323.21875 333.898438 321.300781 L 333.898438 308.699219 C 333.898438 306.855469 333.0625 305.179688 331.734375 304 Z M 371.699219 308.699219 L 357.648438 308.699219 C 351.078125 294.351562 322.898438 286.675781 302.398438 282.933594 L 302.398438 264.601562 C 302.398438 262.925781 301.734375 261.328125 300.554688 260.144531 L 270.898438 230.492188 L 270.898438 176.398438 L 333.898438 176.398438 C 337.371094 176.398438 340.199219 173.570312 340.199219 170.101562 L 340.199219 107.101562 C 340.199219 96.664062 331.734375 88.199219 321.300781 88.199219 C 310.867188 88.199219 302.398438 96.664062 302.398438 107.101562 L 302.398438 138.601562 L 119.699219 138.601562 C 109.265625 138.601562 100.800781 147.066406 100.800781 157.5 C 100.800781 167.933594 109.265625 176.398438 119.699219 176.398438 L 195.300781 176.398438 L 195.300781 230.492188 L 165.644531 260.144531 C 164.464844 261.328125 163.800781 262.925781 163.800781 264.601562 L 163.800781 282.933594 C 143.300781 286.675781 115.121094 294.351562 108.550781 308.699219 L 81.898438 308.699219 C 81.898438 308.699219 81.898438 308.675781 81.554688 308.675781 C 67.921875 307.960938 63 298.855469 63 289.800781 C 63 280.621094 72.71875 270.898438 81.898438 270.898438 C 91.078125 270.898438 100.800781 280.621094 100.800781 289.800781 C 100.800781 293.269531 103.628906 296.101562 107.101562 296.101562 C 110.570312 296.101562 113.398438 293.269531 113.398438 289.800781 C 113.398438 242.574219 91.695312 233.101562 56.699219 233.101562 C 23.304688 233.101562 0 256.429688 0 289.800781 L 0 371.699219 C 0 375.167969 2.832031 378 6.300781 378 L 371.699219 378 C 375.167969 378 378 375.167969 378 371.699219 L 378 315 C 378 311.53125 375.167969 308.699219 371.699219 308.699219 "/>
<path style=" stroke:none;fill-rule:nonzero;fill:rgb(38.819885%,5.099487%,4.708862%);fill-opacity:1;" d="M 264.601562 50.398438 L 201.601562 50.398438 C 201.601562 43.460938 207.261719 37.800781 214.199219 37.800781 L 233.101562 37.800781 C 243.535156 37.800781 252 29.335938 252 18.898438 C 252 15.429688 254.828125 12.601562 258.300781 12.601562 L 264.601562 12.601562 Z M 264.601562 113.398438 L 201.601562 113.398438 L 201.601562 63 L 264.601562 63 Z M 258.300781 0 C 247.867188 0 239.398438 8.464844 239.398438 18.898438 C 239.398438 22.371094 236.570312 25.199219 233.101562 25.199219 L 214.199219 25.199219 C 200.296875 25.199219 189 36.496094 189 50.398438 L 189 126 L 277.199219 126 L 277.199219 6.300781 C 277.199219 2.832031 274.371094 0 270.898438 0 L 258.300781 0 "/>
<path style=" stroke:none;fill-rule:nonzero;fill:rgb(38.819885%,5.099487%,4.708862%);fill-opacity:1;" d="M 226.800781 75.601562 L 214.199219 75.601562 L 214.199219 88.199219 L 226.800781 88.199219 L 226.800781 75.601562 "/>
<path style=" stroke:none;fill-rule:nonzero;fill:rgb(38.819885%,5.099487%,4.708862%);fill-opacity:1;" d="M 252 75.601562 L 239.398438 75.601562 L 239.398438 88.199219 L 252 88.199219 L 252 75.601562 "/>
<path style=" stroke:none;fill-rule:nonzero;fill:rgb(38.819885%,5.099487%,4.708862%);fill-opacity:1;" d="M 75.601562 201.601562 L 163.800781 201.601562 L 163.800781 189 L 75.601562 189 L 75.601562 201.601562 "/>
<path style=" stroke:none;fill-rule:nonzero;fill:rgb(38.819885%,5.099487%,4.708862%);fill-opacity:1;" d="M 88.199219 226.800781 L 182.699219 226.800781 L 182.699219 214.199219 L 88.199219 214.199219 L 88.199219 226.800781 "/>
<path style=" stroke:none;fill-rule:nonzero;fill:rgb(38.819885%,5.099487%,4.708862%);fill-opacity:1;" d="M 113.398438 126 L 176.398438 126 L 176.398438 113.398438 L 113.398438 113.398438 L 113.398438 126 "/>
<path style=" stroke:none;fill-rule:nonzero;fill:rgb(38.819885%,5.099487%,4.708862%);fill-opacity:1;" d="M 100.800781 126 L 100.800781 113.398438 L 88.199219 113.398438 L 88.199219 126 L 100.800781 126 "/>
</g>
</svg>
